<?xml version="1.0"?>
<svg xmlns="http://www.w3.org/2000/svg" xmlns:xlink="http://www.w3.org/1999/xlink" version="1.1" id="Capa_1" x="0px" y="0px" viewBox="0 0 58 58" style="enable-background:new 0 0 58 58;" xml:space="preserve" width="512px" height="512px" class=""><g><polygon style="fill:#CBCBA1" points="51.5,14 37.5,0 6.5,0 6.5,58 51.5,58 " data-original="#EDEADA" class="active-path" data-old_color="#EDEADA"/><g>
	<path style="fill:#0B2FE9" d="M16.5,23h25c0.552,0,1-0.447,1-1s-0.448-1-1-1h-25c-0.552,0-1,0.447-1,1S15.948,23,16.5,23z" data-original="#CEC9AE" class="" data-old_color="#CEC9AE"/>
	<path style="fill:#0B2FE9" d="M16.5,15h10c0.552,0,1-0.447,1-1s-0.448-1-1-1h-10c-0.552,0-1,0.447-1,1S15.948,15,16.5,15z" data-original="#CEC9AE" class="" data-old_color="#CEC9AE"/>
	<path style="fill:#0B2FE9" d="M41.5,29h-25c-0.552,0-1,0.447-1,1s0.448,1,1,1h25c0.552,0,1-0.447,1-1S42.052,29,41.5,29z" data-original="#CEC9AE" class="" data-old_color="#CEC9AE"/>
	<path style="fill:#0B2FE9" d="M41.5,37h-25c-0.552,0-1,0.447-1,1s0.448,1,1,1h25c0.552,0,1-0.447,1-1S42.052,37,41.5,37z" data-original="#CEC9AE" class="" data-old_color="#CEC9AE"/>
	<path style="fill:#0B2FE9" d="M41.5,45h-25c-0.552,0-1,0.447-1,1s0.448,1,1,1h25c0.552,0,1-0.447,1-1S42.052,45,41.5,45z" data-original="#CEC9AE" class="" data-old_color="#CEC9AE"/>
</g><polygon style="fill:#0B2FE9" points="37.5,0 37.5,14 51.5,14 " data-original="#CEC9AE" class="" data-old_color="#CEC9AE"/></g> </svg>
