<?xml version="1.0"?>
<svg xmlns="http://www.w3.org/2000/svg" xmlns:xlink="http://www.w3.org/1999/xlink" version="1.1" id="Layer_1" x="0px" y="0px" width="512px" height="512px" viewBox="0 0 128 128" style="enable-background:new 0 0 128 128;" xml:space="preserve" class=""><g><g>
	<circle style="fill:#C2D5D8;" cx="64" cy="63.917" r="64" data-original="#C2D5D8" class=""/>
	<circle style="fill:#E16B5A;" cx="64" cy="63.917" r="30" data-original="#E16B5A" class=""/>
	<path style="fill:#D16354;" d="M64,33.917c-0.335,0-0.667,0.014-1,0.025c16.104,0.529,29,13.742,29,29.975   c0,16.233-12.896,29.446-29,29.976c0.333,0.01,0.665,0.024,1,0.024c16.568,0,30-13.431,30-30C94,47.349,80.568,33.917,64,33.917z" data-original="#D16354"/>
	<path style="fill:#263740;" d="M117.305,28.5C105.836,11.273,86.247-0.083,64-0.083S22.164,11.273,10.695,28.5H117.305z" data-original="#263740" class=""/>
	<path style="fill:#263740;" d="M117.305,99.5c-11.469,17-31.058,28.583-53.305,28.583S22.164,116.5,10.695,99.5H117.305z" data-original="#263740" class=""/>
	<g>
		<g>
			<path style="fill:#C2D5D8;" d="M29,22.5c0,1.1-0.9,2-2,2h-4c-1.1,0-2-0.9-2-2v-4c0-1.1,0.9-2,2-2h4c1.1,0,2,0.9,2,2V22.5z" data-original="#C2D5D8" class=""/>
			<path style="fill:#C2D5D8;" d="M49,22.5c0,1.1-0.9,2-2,2h-4c-1.1,0-2-0.9-2-2v-4c0-1.1,0.9-2,2-2h4c1.1,0,2,0.9,2,2V22.5z" data-original="#C2D5D8" class=""/>
			<path style="fill:#C2D5D8;" d="M69,22.5c0,1.1-0.9,2-2,2h-4c-1.1,0-2-0.9-2-2v-4c0-1.1,0.9-2,2-2h4c1.1,0,2,0.9,2,2V22.5z" data-original="#C2D5D8" class=""/>
			<path style="fill:#C2D5D8;" d="M89,22.5c0,1.1-0.9,2-2,2h-4c-1.1,0-2-0.9-2-2v-4c0-1.1,0.9-2,2-2h4c1.1,0,2,0.9,2,2V22.5z" data-original="#C2D5D8" class=""/>
			<path style="fill:#C2D5D8;" d="M103,24.5h4c1.1,0,2-0.9,2-2v-4c0-0.028-0.007-0.054-0.008-0.082     c-0.661-0.654-1.336-1.293-2.025-1.918H103c-1.1,0-2,0.9-2,2v4C101,23.6,101.9,24.5,103,24.5z" data-original="#C2D5D8" class=""/>
			<path style="fill:#C2D5D8;" d="M29,105.5c0-1.104-0.896-2-2-2h-4c-1.104,0-2,0.896-2,2v4c0,1.104,0.896,2,2,2h4     c1.104,0,2-0.896,2-2V105.5z" data-original="#C2D5D8" class=""/>
			<path style="fill:#C2D5D8;" d="M49,105.5c0-1.104-0.896-2-2-2h-4c-1.104,0-2,0.896-2,2v4c0,1.104,0.896,2,2,2h4     c1.104,0,2-0.896,2-2V105.5z" data-original="#C2D5D8" class=""/>
			<path style="fill:#C2D5D8;" d="M69,105.5c0-1.104-0.896-2-2-2h-4c-1.104,0-2,0.896-2,2v4c0,1.104,0.896,2,2,2h4     c1.104,0,2-0.896,2-2V105.5z" data-original="#C2D5D8" class=""/>
			<path style="fill:#C2D5D8;" d="M89,105.5c0-1.104-0.896-2-2-2h-4c-1.104,0-2,0.896-2,2v4c0,1.104,0.896,2,2,2h4     c1.104,0,2-0.896,2-2V105.5z" data-original="#C2D5D8" class=""/>
			<path style="fill:#C2D5D8;" d="M103,103.5h4c1.1,0,2,0.732,2,1.833v4c0,0.028-0.007,0.137-0.008,0.165     c-0.661,0.654-1.336,1.002-2.025,2.002H103c-1.1,0-2-1.066-2-2.167v-4C101,104.232,101.9,103.5,103,103.5z" data-original="#C2D5D8" class=""/>
		</g>
	</g>
	<path style="fill:#F5F5F5;" d="M55,47.737c0-0.763,0.506-1.045,1.144-0.627l24.485,16.046c0.637,0.418,0.633,1.102-0.005,1.521   L56.145,80.723c-0.64,0.418-1.146,0.137-1.146-0.627L55,47.737L55,47.737z" data-original="#F5F5F5" class=""/>
	<path style="fill:#354D59;" d="M11.383,27.5c-0.23,0.333-0.463,0.663-0.688,1h106.61c-0.224-0.337-0.457-0.667-0.688-1H11.383z" data-original="#354D59" class="active-path"/>
	<path style="fill:#354D59;" d="M116.607,100.5c0.233-0.333,0.47-0.663,0.697-1H10.695c0.227,0.337,0.463,0.667,0.696,1H116.607z" data-original="#354D59" class="active-path"/>
</g></g> </svg>
